HIERARCHY
ROOT Hips
{
    OFFSET   0.000000   0.000000   0.000000
    CHANNELS 6 Xposition Yposition Zposition Zrotation Xrotation Yrotation
    JOINT Chest
    {
        OFFSET   0.000000   8.007230   0.000000
        CHANNELS 3 Zrotation Xrotation Yrotation
        JOINT Chest2
        {
            OFFSET   0.000000  22.077100   0.000000
            CHANNELS 3 Zrotation Xrotation Yrotation
            JOINT Neck
            {
                OFFSET   0.000000  23.255100   0.000000
                CHANNELS 3 Zrotation Xrotation Yrotation
                JOINT Head
                {
                    OFFSET   0.000000  14.370100   1.956600
                    CHANNELS 3 Zrotation Xrotation Yrotation
                    End Site
                    {
                        OFFSET   0.000000  19.566000   0.000000
                    }
                }
            }
            JOINT LeftCollar
            {
                OFFSET   3.911900  19.017000  -0.467063
                CHANNELS 3 Zrotation Xrotation Yrotation
                JOINT LeftShoulder
                {
                    OFFSET  10.383700   0.000000   0.000000
                    CHANNELS 3 Zrotation Xrotation Yrotation
                    JOINT LeftElbow
                    {
                        OFFSET  26.662100   0.001193   0.000980
                        CHANNELS 3 Zrotation Xrotation Yrotation
                        JOINT LeftWrist
                        {
                            OFFSET  28.869000  -0.000059  -0.000082
                            CHANNELS 3 Zrotation Xrotation Yrotation
                            JOINT LeftFinger0
                            {
                                OFFSET   2.044650  -2.323450   3.252850
                                CHANNELS 3 Zrotation Xrotation Yrotation
                                JOINT LeftFinger01
                                {
                                    OFFSET   3.088130   0.000000   0.000000
                                    CHANNELS 3 Zrotation Xrotation Yrotation
                                    JOINT LeftFinger02
                                    {
                                        OFFSET   2.639460   0.000000   0.000000
                                        CHANNELS 3 Zrotation Xrotation Yrotation
                                        End Site
                                        {
                                            OFFSET   2.582190   0.000000   0.000000
                                        }
                                    }
                                }
                            }
                            JOINT LeftFinger1
                            {
                                OFFSET   8.364480   0.000000   3.252850
                                CHANNELS 3 Zrotation Xrotation Yrotation
                                JOINT LeftFinger11
                                {
                                    OFFSET   4.646930   0.000000   0.000000
                                    CHANNELS 3 Zrotation Xrotation Yrotation
                                    JOINT LeftFinger12
                                    {
                                        OFFSET   2.323470   0.000000   0.000000
                                        CHANNELS 3 Zrotation Xrotation Yrotation
                                        End Site
                                        {
                                            OFFSET   2.273050   0.000000   0.000000
                                        }
                                    }
                                }
                            }
                            JOINT LeftFinger2
                            {
                                OFFSET   8.364490   0.000016   1.078090
                                CHANNELS 3 Zrotation Xrotation Yrotation
                                JOINT LeftFinger21
                                {
                                    OFFSET   5.111610   0.000000   0.000000
                                    CHANNELS 3 Zrotation Xrotation Yrotation
                                    JOINT LeftFinger22
                                    {
                                        OFFSET   2.788150   0.000016   0.000000
                                        CHANNELS 3 Zrotation Xrotation Yrotation
                                        End Site
                                        {
                                            OFFSET   2.727660   0.000000   0.000000
                                        }
                                    }
                                }
                            }
                            JOINT LeftFinger3
                            {
                                OFFSET   7.899780   0.000015  -1.078090
                                CHANNELS 3 Zrotation Xrotation Yrotation
                                JOINT LeftFinger31
                                {
                                    OFFSET   4.646930   0.000000   0.000000
                                    CHANNELS 3 Zrotation Xrotation Yrotation
                                    JOINT LeftFinger32
                                    {
                                        OFFSET   2.323470   0.000000   0.000000
                                        CHANNELS 3 Zrotation Xrotation Yrotation
                                        End Site
                                        {
                                            OFFSET   2.273050   0.000000   0.000000
                                        }
                                    }
                                }
                            }
                            JOINT LeftFinger4
                            {
                                OFFSET   7.435090   0.000000  -3.252850
                                CHANNELS 3 Zrotation Xrotation Yrotation
                                JOINT LeftFinger41
                                {
                                    OFFSET   3.717550   0.000000   0.000000
                                    CHANNELS 3 Zrotation Xrotation Yrotation
                                    JOINT LeftFinger42
                                    {
                                        OFFSET   1.858770   0.000000   0.000000
                                        CHANNELS 3 Zrotation Xrotation Yrotation
                                        End Site
                                        {
                                            OFFSET   1.818440   0.000000   0.000000
                                        }
                                    }
                                }
                            }
                        }
                    }
                }
            }
            JOINT RightCollar
            {
                OFFSET  -3.911910  19.017000  -0.467062
                CHANNELS 3 Zrotation Xrotation Yrotation
                JOINT RightShoulder
                {
                    OFFSET -10.383700   0.000014   0.000000
                    CHANNELS 3 Zrotation Xrotation Yrotation
                    JOINT RightElbow
                    {
                        OFFSET -26.662100   0.001225   0.001091
                        CHANNELS 3 Zrotation Xrotation Yrotation
                        JOINT RightWrist
                        {
                            OFFSET -28.869000  -0.000020  -0.000085
                            CHANNELS 3 Zrotation Xrotation Yrotation
                            JOINT RightFinger0
                            {
                                OFFSET  -2.044650  -2.323490   3.252850
                                CHANNELS 3 Zrotation Xrotation Yrotation
                                JOINT RightFinger01
                                {
                                    OFFSET  -3.088130   0.000000   0.000000
                                    CHANNELS 3 Zrotation Xrotation Yrotation
                                    JOINT RightFinger02
                                    {
                                        OFFSET  -2.639460   0.000000   0.000000
                                        CHANNELS 3 Zrotation Xrotation Yrotation
                                        End Site
                                        {
                                            OFFSET  -2.582190   0.000000   0.000000
                                        }
                                    }
                                }
                            }
                            JOINT RightFinger1
                            {
                                OFFSET  -8.364480   0.000000   3.252850
                                CHANNELS 3 Zrotation Xrotation Yrotation
                                JOINT RightFinger11
                                {
                                    OFFSET  -4.646930   0.000000   0.000000
                                    CHANNELS 3 Zrotation Xrotation Yrotation
                                    JOINT RightFinger12
                                    {
                                        OFFSET  -2.323470   0.000000   0.000000
                                        CHANNELS 3 Zrotation Xrotation Yrotation
                                        End Site
                                        {
                                            OFFSET  -2.273050   0.000000   0.000000
                                        }
                                    }
                                }
                            }
                            JOINT RightFinger2
                            {
                                OFFSET  -8.364480   0.000000   1.078090
                                CHANNELS 3 Zrotation Xrotation Yrotation
                                JOINT RightFinger21
                                {
                                    OFFSET  -5.111620   0.000000   0.000000
                                    CHANNELS 3 Zrotation Xrotation Yrotation
                                    JOINT RightFinger22
                                    {
                                        OFFSET  -2.788160   0.000000   0.000000
                                        CHANNELS 3 Zrotation Xrotation Yrotation
                                        End Site
                                        {
                                            OFFSET  -2.727660   0.000000   0.000000
                                        }
                                    }
                                }
                            }
                            JOINT RightFinger3
                            {
                                OFFSET  -7.899780   0.000000  -1.078090
                                CHANNELS 3 Zrotation Xrotation Yrotation
                                JOINT RightFinger31
                                {
                                    OFFSET  -4.646930   0.000000   0.000000
                                    CHANNELS 3 Zrotation Xrotation Yrotation
                                    JOINT RightFinger32
                                    {
                                        OFFSET  -2.323470   0.000000   0.000000
                                        CHANNELS 3 Zrotation Xrotation Yrotation
                                        End Site
                                        {
                                            OFFSET  -2.273050   0.000000   0.000000
                                        }
                                    }
                                }
                            }
                            JOINT RightFinger4
                            {
                                OFFSET  -7.435090   0.000000  -3.252850
                                CHANNELS 3 Zrotation Xrotation Yrotation
                                JOINT RightFinger41
                                {
                                    OFFSET  -3.717550   0.000000   0.000000
                                    CHANNELS 3 Zrotation Xrotation Yrotation
                                    JOINT RightFinger42
                                    {
                                        OFFSET  -1.858760   0.000000   0.000000
                                        CHANNELS 3 Zrotation Xrotation Yrotation
                                        End Site
                                        {
                                            OFFSET  -1.818440   0.000000   0.000000
                                        }
                                    }
                                }
                            }
                        }
                    }
                }
            }
        }
    }
    JOINT LeftHip
    {
        OFFSET   9.783030   0.000000   0.000000
        CHANNELS 3 Zrotation Xrotation Yrotation
        JOINT LeftKnee
        {
            OFFSET   0.000063 -41.789100   0.000608
            CHANNELS 3 Zrotation Xrotation Yrotation
            JOINT LeftAnkle
            {
                OFFSET   0.000048 -41.133200  -0.000184
                CHANNELS 3 Zrotation Xrotation Yrotation
                JOINT LeftToe
                {
                    OFFSET   0.000000  -6.358960  14.674500
                    CHANNELS 3 Zrotation Xrotation Yrotation
                    End Site
                    {
                        OFFSET   0.000000   0.000000   3.913200
                    }
                }
            }
        }
    }
    JOINT RightHip
    {
        OFFSET  -9.783030   0.000000   0.000000
        CHANNELS 3 Zrotation Xrotation Yrotation
        JOINT RightKnee
        {
            OFFSET   0.000071 -41.789100   0.001239
            CHANNELS 3 Zrotation Xrotation Yrotation
            JOINT RightAnkle
            {
                OFFSET   0.000037 -41.133200  -0.000166
                CHANNELS 3 Zrotation Xrotation Yrotation
                JOINT RightToe
                {
                    OFFSET   0.000000  -6.358960  14.674500
                    CHANNELS 3 Zrotation Xrotation Yrotation
                    End Site
                    {
                        OFFSET   0.000000   0.000000   3.913200
                    }
                }
            }
        }
    }
}
MOTION
Frames: 6
Frame Time:   0.016667
  0.530884  90.044700   0.469487  -1.163910  -3.874350  -1.691710  -0.237628   3.713790  -0.470058  -0.446052   7.429370  -0.927580   0.775190   0.750291  -0.011778   1.274140   1.520340   5.793900  -6.001930  -1.357670   4.863040 -69.219200  23.850800  -0.375703  -3.882560  -6.644900 -17.235500  14.973900  -5.848930   6.617080  54.068500  45.943300 -91.812200 -20.526600  -0.000210   0.002090  -5.263310  -0.008062  -0.001149 -32.528200   8.273350 -12.714500 -27.369400   0.001304  -0.004159 -19.158600   0.001926   0.007450 -28.744600  -0.621549   1.132950 -40.294900  -0.002150   0.000815 -26.836400  -0.004090   0.005970 -28.016700  -0.607107   1.140750 -32.155500  -0.002467   0.012062 -21.411000   0.000000  -0.001362 -31.576500  -0.714328   1.161990 -47.375500  -0.003068  -0.000997 -31.552100  -0.000422  -0.000947  10.699500   2.054100   8.535540  66.764300   2.668020  -1.629330   1.728700 -10.859300  13.634900  -8.690800 -17.961300   4.655890 -39.213600  25.991800  53.750500  26.818400   0.002378  -0.004681   8.409160   0.000857  -0.002477  25.645000   2.239400   4.676880  21.056700  -0.003697  -0.009333  14.739700  -0.003530  -0.004226  23.736200  -1.923830  -4.365790  23.809400   0.005689  -0.001726  15.857100  -0.000676  -0.003412  26.694600  -3.897110  -7.697720  26.956800  -0.001089  -0.005755  17.953300  -0.000772  -0.002345  32.991400  -4.720250  -7.224180  49.934200  -0.000104  -0.002108  33.256200   0.000247  -0.003323   0.798821   5.478640  -0.057297  -0.266233   1.046160  11.951900  -4.284170  -4.280610   5.961080   0.000000   0.000000  -0.000000   2.037450   4.925810  -9.562340   0.336311   1.892320  -7.164870 -10.284100   0.488364   1.572800   0.000000   0.000000   0.000000
  0.521201  90.044900   0.469429  -1.163550  -3.887100  -1.692270  -0.234451   3.717840  -0.474314  -0.439368   7.437450  -0.936313   0.762000   0.794768  -0.011745   1.252570   1.610480   5.853970  -6.037400  -1.375600   4.826880 -69.230400  23.841100  -0.376996  -3.881090  -6.685380 -17.228900  14.964500  -5.836870   6.616930  54.102400  45.937200 -91.803500 -20.526000  -0.000210   0.002098  -5.262980  -0.008062  -0.001149 -32.517800   8.257210 -12.697900 -27.358600   0.001302  -0.004157 -19.151100   0.001920   0.007454 -28.744400  -0.634816   1.157190 -40.282900  -0.002155   0.000766 -26.828500  -0.004098   0.005965 -28.016400  -0.620065   1.165170 -32.154000  -0.002476   0.012079 -21.411000   0.000000  -0.001359 -31.581200  -0.723864   1.177290 -47.382700  -0.003073  -0.000996 -31.556900  -0.000428  -0.000947  10.679000   2.054170   8.521110  66.762400   2.730500  -1.534410   1.712940 -10.859700  13.572400  -8.702890 -17.907400   4.644010 -39.202500  26.001100  53.771100  26.842900   0.002373  -0.004668   8.421420   0.000852  -0.002475  25.663900   2.239450   4.661190  21.072200  -0.003698  -0.009336  14.750500  -0.003534  -0.004228  23.749900  -1.930930  -4.378990  23.823400   0.005694  -0.001713  15.866500  -0.000678  -0.003415  26.707500  -3.903390  -7.705300  26.970300  -0.001102  -0.005752  17.962200  -0.000778  -0.002332  33.002400  -4.726940  -7.231280  49.951800  -0.000111  -0.002109  33.268000   0.000245  -0.003325   0.805681   5.501620  -0.049186  -0.267918   1.041930  11.949000  -4.290980  -4.279840   5.958260  -0.000000   0.000000  -0.000000   2.039950   4.939420  -9.562390   0.336196   1.893980  -7.161180 -10.289800   0.488152   1.565910   0.000000   0.000000  -0.000000
  0.506476  90.045100   0.469370  -1.162990  -3.916490  -1.696120  -0.227470   3.726910  -0.480334  -0.424896   7.455540  -0.948819   0.736653   0.875537  -0.011712   1.211020   1.774240   5.961180  -6.097100  -1.393530   4.790720 -69.271600  23.831400  -0.386218  -3.862350  -6.726950 -17.191800  14.952400  -5.800950   6.616500  54.136400  45.931100 -91.794700 -20.521400  -0.000205   0.002108  -5.260710  -0.008063  -0.001149 -32.497400   8.241070 -12.681200 -27.339400   0.001293  -0.004156 -19.137600   0.001909   0.007463 -28.744100  -0.648082   1.181440 -40.271000  -0.002168   0.000656 -26.820500  -0.004120   0.005951 -28.016000  -0.633022   1.189590 -32.148700  -0.002495   0.012121 -21.411000   0.000000  -0.001354 -31.585800  -0.733400   1.192590 -47.390000  -0.003088  -0.000992 -31.561800  -0.000441  -0.000947  10.640900   2.054340   8.490040  66.758700   2.826370  -1.337510   1.681270 -10.849000  13.443000  -8.726260 -17.789900   4.620270 -39.191800  26.026000  53.811400  26.877100   0.002362  -0.004654   8.438560   0.000845  -0.002472  25.682800   2.239500   4.645490  21.087600  -0.003701  -0.009340  14.761300  -0.003543  -0.004235  23.763700  -1.938030  -4.392190  23.838100   0.005707  -0.001682  15.876200  -0.000685  -0.003427  26.722600  -3.909660  -7.712890  26.986100  -0.001132  -0.005738  17.972700  -0.000791  -0.002299  33.013400  -4.733630  -7.238380  49.969500  -0.000127  -0.002110  33.279700   0.000240  -0.003331   0.814753   5.539210  -0.040315  -0.269603   1.037700  11.946100  -4.301690  -4.279110   5.951210   0.000000   0.000000  -0.000000   2.045140   4.969040  -9.562670   0.335943   1.896800  -7.152350 -10.299100   0.487707   1.559020   0.000000   0.000000   0.000000
  0.497953  90.044000   0.472850  -1.162780  -3.955010  -1.707850  -0.217941   3.738120  -0.483125  -0.405520   7.477920  -0.955161   0.708009   0.952567  -0.011786   1.164070   1.930670   6.062750  -6.148620  -1.372930   4.802320 -69.325300  23.857900  -0.472058  -3.819650  -6.718280 -17.120400  14.961000  -5.756170   6.618630  54.393100  46.086100 -92.102900 -20.485900  -0.000190   0.002110  -5.243000  -0.008061  -0.001158 -32.475800   8.253770 -12.707300 -27.324300   0.001274  -0.004159 -19.127000   0.001895   0.007478 -28.744800  -0.635868   1.159090 -40.284600  -0.002184   0.000506 -26.829600  -0.004154   0.005925 -28.016000  -0.621098   1.167100 -32.143900  -0.002522   0.012189 -21.409000   0.000000  -0.001348 -31.583300  -0.731986   1.190540 -47.386100  -0.003112  -0.000988 -31.559200  -0.000461  -0.000952  10.599300   2.057240   8.444840  66.755500   2.884060  -1.098330   1.650420 -10.791000  13.280200  -8.748510 -17.629200   4.596770 -39.203000  26.070000  53.854100  26.888400   0.002346  -0.004660   8.444200   0.000842  -0.002470  25.681700   2.241290   4.649910  21.086700  -0.003711  -0.009345  14.760700  -0.003554  -0.004246  23.764200  -1.933110  -4.381500  23.838500   0.005732  -0.001633  15.876400  -0.000700  -0.003451  26.726000  -3.902830  -7.698850  26.987700  -0.001175  -0.005708  17.973800  -0.000808  -0.002243  33.005500  -4.723940  -7.226020  49.956900  -0.000149  -0.002101  33.271200   0.000233  -0.003341   0.817353   5.561940  -0.039528  -0.269367   1.059680  11.966600  -4.308540  -4.284620   5.940330   0.000000   0.000000   0.000000   2.051310   5.004700  -9.565380   0.335558   1.899200  -7.136910 -10.306200   0.487441   1.559680   0.000000   0.000000   0.000000
  0.490552  90.041400   0.479689  -1.162800  -4.007350  -1.725090  -0.207203   3.753940  -0.484160  -0.383772   7.509480  -0.957771   0.677936   1.040630  -0.012305   1.114800   2.109450   6.170920  -6.198840  -1.320230   4.855870 -69.353200  24.003700  -0.695381  -3.748460  -6.665150 -16.991300  14.964400  -5.657850   6.630550  54.775000  46.325100 -92.588900 -20.435700  -0.000172   0.002111  -5.217870  -0.008054  -0.001177 -32.443900   8.269670 -12.749100 -27.302200   0.001249  -0.004165 -19.111500   0.001878   0.007499 -28.745500  -0.618222   1.126860 -40.298300  -0.002204   0.000335 -26.838700  -0.004198   0.005898 -28.013500  -0.603797   1.134710 -32.125200  -0.002554   0.012268 -21.395400   0.000000  -0.001340 -31.565500  -0.730572   1.188490 -47.358900  -0.003141  -0.000983 -31.541000  -0.000487  -0.000959  10.556100   2.067970   8.402410  66.750100   2.934960  -0.813418   1.610850 -10.682400  13.095400  -8.780920 -17.451800   4.561140 -39.216200  26.117100  53.907500  26.896500   0.002326  -0.004666   8.448210   0.000838  -0.002466  25.679900   2.248230   4.664110  21.085800  -0.003727  -0.009352  14.760100  -0.003568  -0.004263  23.765700  -1.922020  -4.355610  23.839000   0.005765  -0.001575  15.876700  -0.000722  -0.003484  26.731400  -3.888660  -7.669100  26.989300  -0.001229  -0.005673  17.974800  -0.000831  -0.002177  32.999900  -4.705100  -7.198930  49.944200  -0.000176  -0.002088  33.262800   0.000222  -0.003355   0.817735   5.595570  -0.039304  -0.268503   1.090810  12.002700  -4.314130  -4.292950   5.927410  -0.000000   0.000000  -0.000000   2.059520   5.053790  -9.569520   0.335207   1.901660  -7.123780 -10.312700   0.486508   1.564300  -0.000000   0.000000   0.000000
  0.483228  90.037300   0.488224  -1.163390  -4.075680  -1.746150  -0.196654   3.775320  -0.480322  -0.362682   7.552160  -0.950596   0.650770   1.139630  -0.013629   1.071330   2.310150   6.278370  -6.239640  -1.231850   4.972610 -69.345200  24.314800  -1.062170  -3.634690  -6.520790 -16.775800  14.905100  -5.455470   6.647010  55.008200  46.513600 -92.976900 -20.394300  -0.000160   0.002118  -5.197170  -0.008039  -0.001205 -32.405300   8.272810 -12.785600 -27.271600   0.001220  -0.004168 -19.090000   0.001860   0.007526 -28.743600  -0.608711   1.109660 -40.230500  -0.002226   0.000126 -26.793500  -0.004256   0.005890 -28.001700  -0.594210   1.117580 -32.045900  -0.002591   0.012346 -21.342600   0.000000  -0.001329 -31.490600  -0.756171   1.233330 -47.247300  -0.003172  -0.000976 -31.466600  -0.000519  -0.000965  10.518600   2.090770   8.383720  66.741300   2.977810  -0.496749   1.552640 -10.529300  12.911900  -8.846950 -17.292500   4.500770 -39.216700  26.151500  53.976300  26.913000   0.002305  -0.004665   8.456480   0.000826  -0.002457  25.690900   2.261860   4.689480  21.095900  -0.003745  -0.009364  14.767100  -0.003584  -0.004285  23.782800  -1.906900  -4.317470  23.854900   0.005803  -0.001518  15.887300  -0.000749  -0.003528  26.743100  -3.871260  -7.631420  27.010000  -0.001295  -0.005645  17.988600  -0.000859  -0.002109  33.013800  -4.683990  -7.163130  49.960000  -0.000206  -0.002079  33.273300   0.000208  -0.003372   0.817161   5.661030  -0.039038  -0.266591   1.100640  12.037600  -4.318500  -4.297000   5.914090   0.000000   0.000000  -0.000000   2.064670   5.120060  -9.571890   0.334953   1.904800  -7.120480 -10.317400   0.481466   1.580710   0.000000   0.000000   0.000000
